<svg xmlns="http://www.w3.org/2000/svg" viewBox="-12 -2 324 176" width="324" height="176">
    <defs>
        <marker id="arrow" viewBox="0 0 10 10" refX="10" refY="5" markerWidth="6" markerHeight="6" orient="auto-start-reverse">
            <path d="M 0 0 L 10 5 L 0 10 z" fill="black"/>
        </marker>
    </defs>

    <g transform="translate(50, 20)">
        <line x1="40" y1="120" x2="160" y2="120" stroke="black" stroke-width="2" marker-end="url(#arrow)"/>
        <line x1="40" y1="120" x2="40" y2="20" stroke="black" stroke-width="2" marker-end="url(#arrow)"/>
        <line x1="15" y1="100" x2="15" y2="70" stroke="black" stroke-width="2" marker-end="url(#arrow)"/>
        <text x="30" y="50" font-family="serif" font-style="italic" font-size="20" font-weight="bold">g</text>
        <text x="140" y="145" font-family="serif" font-style="italic" font-size="20" font-weight="bold">h</text>
        <line x1="40" y1="40" x2="130" y2="120" stroke="black" stroke-width="3" stroke-linecap="round"/>
    </g>

    <g transform="translate(50, 180)">
        <line x1="40" y1="120" x2="160" y2="120" stroke="black" stroke-width="2" marker-end="url(#arrow)"/>
        <line x1="40" y1="120" x2="40" y2="20" stroke="black" stroke-width="2" marker-end="url(#arrow)"/>
        <line x1="15" y1="100" x2="15" y2="70" stroke="black" stroke-width="2" marker-end="url(#arrow)"/>
        <text x="30" y="50" font-family="serif" font-style="italic" font-size="20" font-weight="bold">g</text>
        <text x="140" y="145" font-family="serif" font-style="italic" font-size="20" font-weight="bold">h</text>
        <line x1="40" y1="60" x2="130" y2="60" stroke="black" stroke-width="3" stroke-linecap="round"/>
    </g>

    <g transform="translate(50, 340)">
        <line x1="40" y1="120" x2="160" y2="120" stroke="black" stroke-width="2" marker-end="url(#arrow)"/>
        <line x1="40" y1="120" x2="40" y2="20" stroke="black" stroke-width="2" marker-end="url(#arrow)"/>
        <line x1="15" y1="100" x2="15" y2="70" stroke="black" stroke-width="2" marker-end="url(#arrow)"/>
        <text x="30" y="50" font-family="serif" font-style="italic" font-size="20" font-weight="bold">g</text>
        <text x="140" y="145" font-family="serif" font-style="italic" font-size="20" font-weight="bold">h</text>
        <line x1="40" y1="120" x2="120" y2="40" stroke="black" stroke-width="3" stroke-linecap="round"/>
    </g>

    <g transform="translate(50, 500)">
        <line x1="40" y1="120" x2="160" y2="120" stroke="black" stroke-width="2" marker-end="url(#arrow)"/>
        <line x1="40" y1="120" x2="40" y2="20" stroke="black" stroke-width="2" marker-end="url(#arrow)"/>
        <line x1="15" y1="100" x2="15" y2="70" stroke="black" stroke-width="2" marker-end="url(#arrow)"/>
        <text x="30" y="50" font-family="serif" font-style="italic" font-size="20" font-weight="bold">g</text>
        <text x="140" y="145" font-family="serif" font-style="italic" font-size="20" font-weight="bold">h</text>
        <path d="M 40 120 C 70 50 110 40 150 40" fill="none" stroke="black" stroke-width="3" stroke-linecap="round"/>
    </g>
</svg>